<?xml version="1.0" encoding="utf-8"?>
<!-- Generator: Adobe Illustrator 16.0.3, SVG Export Plug-In . SVG Version: 6.00 Build 0)  -->
<!DOCTYPE svg PUBLIC "-//W3C//DTD SVG 1.1//EN" "http://www.w3.org/Graphics/SVG/1.1/DTD/svg11.dtd">
<svg version="1.1" id="レイヤー_1" xmlns="http://www.w3.org/2000/svg" xmlns:xlink="http://www.w3.org/1999/xlink" x="0px"
	 y="0px" width="112.012px" height="51.672px" viewBox="0 0 112.012 51.672" enable-background="new 0 0 112.012 51.672"
	 xml:space="preserve">
<polygon fill="#BED12C" points="86.175,0 74.678,11.498 79.991,11.498 86.175,5.313 106.7,25.836 86.176,46.359 80.099,40.282 
	74.787,40.282 86.176,51.671 112.012,25.836 "/>
<g>
	<g>
		<path fill="#95AE3A" d="M13.505,36.32c0,0.945-0.805,1.75-1.785,1.75H4.754c-2.625,0-4.726-2.1-4.726-4.726V18.293
			c0-2.59,2.101-4.726,4.726-4.726h6.616c0.98,0,1.785,0.805,1.785,1.785s-0.805,1.75-1.785,1.75H4.754
			c-0.665,0-1.19,0.56-1.19,1.19v15.051c0,0.665,0.525,1.19,1.19,1.19h6.966C12.7,34.535,13.505,35.339,13.505,36.32z"/>
		<path fill="#95AE3A" d="M22.779,38.07c-2.625,0-4.726-2.1-4.726-4.726V15.353c0-0.98,0.805-1.785,1.75-1.785
			c0.98,0,1.785,0.805,1.785,1.785v17.992c0,0.665,0.525,1.19,1.19,1.19h7.561c0.63,0,1.19-0.525,1.19-1.19V15.353
			c0-0.98,0.805-1.785,1.75-1.785c0.98,0,1.785,0.805,1.785,1.785v17.992c0,2.625-2.1,4.726-4.725,4.726H22.779z"/>
		<path fill="#95AE3A" d="M56.625,27.534v5.846c0,2.59-2.101,4.69-4.726,4.69H41.364c-0.945,0-1.75-0.77-1.75-1.75V15.353
			c0-0.98,0.805-1.785,1.75-1.785h8.786c2.59,0,4.69,2.135,4.69,4.726v3.36c0,0.665-0.14,1.33-0.385,1.925
			C55.75,24.418,56.625,25.854,56.625,27.534z M43.149,17.103v5.706h7c0.63,0,1.155-0.525,1.155-1.155v-3.36
			c0-0.63-0.525-1.19-1.155-1.19h-2.38H43.149z M53.09,27.534c0-0.63-0.56-1.19-1.19-1.19h-8.751v8.191H51.9
			c0.63,0,1.19-0.525,1.19-1.155V27.534z"/>
		<path fill="#95AE3A" d="M78.185,36.32c0,0.945-0.805,1.75-1.785,1.75H62.923c-0.945,0-1.75-0.805-1.75-1.75V15.353
			c0-0.98,0.805-1.785,1.75-1.785H75.7c0.979,0,1.75,0.805,1.75,1.785c0,0.945-0.771,1.75-1.75,1.75H64.708v5.706h8.751
			c0.979,0,1.785,0.805,1.785,1.785c0,0.945-0.806,1.75-1.785,1.75h-8.751v8.191H76.4C77.38,34.535,78.185,35.339,78.185,36.32z"/>
		<path fill="#95AE3A" d="M84.003,31.798v3.321c0,0.38,0.301,0.68,0.68,0.68h6.002c0.561,0,1.02,0.46,1.02,1.021
			c0,0.54-0.459,1-1.02,1h-6.002c-1.5,0-2.7-1.2-2.7-2.701v-3.321c0-1.5,1.2-2.7,2.7-2.7h4.321c0.36,0,0.681-0.3,0.681-0.68v-1.9
			c0-0.36-0.32-0.68-0.681-0.68h-5.401c-0.539,0-1-0.44-1-1s0.461-1.02,1-1.02h5.401c1.501,0,2.7,1.22,2.7,2.701v1.9
			c0,1.5-1.199,2.7-2.7,2.7h-4.321C84.304,31.118,84.003,31.418,84.003,31.798z"/>
	</g>
	<g>
		<path fill="#BED12C" d="M13.505,36.32c0,0.945-0.805,1.75-1.785,1.75H4.754c-2.625,0-4.726-2.1-4.726-4.726V18.293
			c0-2.59,2.101-4.726,4.726-4.726h6.616c0.98,0,1.785,0.805,1.785,1.785s-0.805,1.75-1.785,1.75H4.754
			c-0.665,0-1.19,0.56-1.19,1.19v15.051c0,0.665,0.525,1.19,1.19,1.19h6.966C12.7,34.535,13.505,35.339,13.505,36.32z"/>
		<path fill="#BED12C" d="M22.779,38.07c-2.625,0-4.726-2.1-4.726-4.726V15.353c0-0.98,0.805-1.785,1.75-1.785
			c0.98,0,1.785,0.805,1.785,1.785v17.992c0,0.665,0.525,1.19,1.19,1.19h7.561c0.63,0,1.19-0.525,1.19-1.19V15.353
			c0-0.98,0.805-1.785,1.75-1.785c0.98,0,1.785,0.805,1.785,1.785v17.992c0,2.625-2.1,4.726-4.725,4.726H22.779z"/>
		<path fill="#BED12C" d="M56.625,27.534v5.846c0,2.59-2.101,4.69-4.726,4.69H41.364c-0.945,0-1.75-0.77-1.75-1.75V15.353
			c0-0.98,0.805-1.785,1.75-1.785h8.786c2.59,0,4.69,2.135,4.69,4.726v3.36c0,0.665-0.14,1.33-0.385,1.925
			C55.75,24.418,56.625,25.854,56.625,27.534z M43.149,17.103v5.706h7c0.63,0,1.155-0.525,1.155-1.155v-3.36
			c0-0.63-0.525-1.19-1.155-1.19h-2.38H43.149z M53.09,27.534c0-0.63-0.56-1.19-1.19-1.19h-8.751v8.191H51.9
			c0.63,0,1.19-0.525,1.19-1.155V27.534z"/>
		<path fill="#BED12C" d="M78.185,36.32c0,0.945-0.805,1.75-1.785,1.75H62.923c-0.945,0-1.75-0.805-1.75-1.75V15.353
			c0-0.98,0.805-1.785,1.75-1.785H75.7c0.979,0,1.75,0.805,1.75,1.785c0,0.945-0.771,1.75-1.75,1.75H64.708v5.706h8.751
			c0.979,0,1.785,0.805,1.785,1.785c0,0.945-0.806,1.75-1.785,1.75h-8.751v8.191H76.4C77.38,34.535,78.185,35.339,78.185,36.32z"/>
		<path fill="#BED12C" d="M84.003,31.798v3.321c0,0.38,0.301,0.68,0.68,0.68h6.002c0.561,0,1.02,0.46,1.02,1.021
			c0,0.54-0.459,1-1.02,1h-6.002c-1.5,0-2.7-1.2-2.7-2.701v-3.321c0-1.5,1.2-2.7,2.7-2.7h4.321c0.36,0,0.681-0.3,0.681-0.68v-1.9
			c0-0.36-0.32-0.68-0.681-0.68h-5.401c-0.539,0-1-0.44-1-1s0.461-1.02,1-1.02h5.401c1.501,0,2.7,1.22,2.7,2.701v1.9
			c0,1.5-1.199,2.7-2.7,2.7h-4.321C84.304,31.118,84.003,31.418,84.003,31.798z"/>
	</g>
</g>
</svg>
