<?xml version="1.0" encoding="utf-8"?>
<!-- Generator: Adobe Illustrator 16.0.3, SVG Export Plug-In . SVG Version: 6.00 Build 0)  -->
<!DOCTYPE svg PUBLIC "-//W3C//DTD SVG 1.1//EN" "http://www.w3.org/Graphics/SVG/1.1/DTD/svg11.dtd" [
	<!ENTITY ns_flows "http://ns.adobe.com/Flows/1.0/">
	<!ENTITY ns_extend "http://ns.adobe.com/Extensibility/1.0/">
	<!ENTITY ns_ai "http://ns.adobe.com/AdobeIllustrator/10.0/">
	<!ENTITY ns_graphs "http://ns.adobe.com/Graphs/1.0/">
]>
<svg version="1.1" id="レイヤー_1" xmlns:x="&ns_extend;" xmlns:i="&ns_ai;" xmlns:graph="&ns_graphs;"
	 xmlns="http://www.w3.org/2000/svg" xmlns:xlink="http://www.w3.org/1999/xlink" xmlns:a="http://ns.adobe.com/AdobeSVGViewerExtensions/3.0/"
	 x="0px" y="0px" width="95.329px" height="51.672px" viewBox="-0.006 0 95.329 51.672"
	 enable-background="new -0.006 0 95.329 51.672" xml:space="preserve">
<g>
	
		<rect x="45.201" y="1.537" fill="none" stroke="#9BB637" stroke-width="3" stroke-miterlimit="10" width="48.634" height="48.633"/>
</g>
<rect x="-156.354" y="78.148" display="none" fill="#FFFFFF" width="106.168" height="35.408"/>
<g>
	<g>
		<rect x="0" y="6.113" fill="#FFFFFF" width="70.492" height="39.482"/>
	</g>
	<g>
		<path fill="#9BB637" d="M12.602,18.538c0-1.26-0.315-2.065-0.98-2.695c-0.875-0.91-2.345-1.47-4.024-1.435
			c-1.995,0-5.075,0.91-5.075,3.815v15.611c0,1.189,0.35,2.557,3.5,3.326c2.029,0.49,4.201,0.105,5.391-0.84
			c0.735-0.596,1.085-1.436,1.085-2.836h2.557c0,2.171-0.735,3.746-2.065,4.83c-1.33,1.086-3.186,1.61-5.146,1.61
			c-0.805,0-1.609-0.104-2.38-0.245C1.855,38.805,0,36.915,0,33.834V18.223c0-4.411,4.025-6.371,7.597-6.406
			c2.274-0.035,4.41,0.77,5.811,2.17c1.12,1.155,1.715,2.59,1.715,4.55L12.602,18.538L12.602,18.538z"/>
		<path fill="#9BB637" d="M20.44,37.405c-1.016-1.05-1.505-2.312-1.505-3.71V11.817h2.484v21.876c0,0.701,0.245,1.33,0.806,1.891
			c0.944,0.945,2.729,1.609,4.55,1.609c2.484,0,4.761-1.26,4.761-3.5V11.782h2.521v21.913c0,3.535-3.187,6.09-7.281,6.09
			C24.36,39.785,21.91,38.875,20.44,37.405z"/>
		<path fill="#9BB637" d="M40.985,39.75c-0.805-0.141-1.436-0.385-1.96-0.91c-0.84-0.91-0.91-2.206-0.91-4.831V22.354v-4.621
			c0-3.605,2.1-5.88,5.46-5.88c0.735,0,1.715,0,2.73,0.07c1.05,0.105,2.135,0.315,3.149,0.7c2.065,0.805,3.71,2.485,3.71,5.706
			c0,2.03-0.035,2.695-0.77,4.411c-0.525,1.225-1.365,1.96-2.312,2.38c1.82,1.364,3.255,3.569,3.255,6.931
			c0,7.036-5.564,7.771-9.485,7.771C42.7,39.82,41.755,39.82,40.985,39.75z M50.121,21.619c0.105-0.245,0.175-0.455,0.245-0.63
			c0.07-0.21,0.14-0.385,0.175-0.595c0.07-0.42,0.105-1.015,0.105-2.065c0-3.15-2.45-3.92-7.071-3.92
			c-2.52,0-2.905,1.995-2.905,3.325v5.355h2.485l2.135,0.035c2.87,0.035,4.2-0.07,4.795-1.435L50.121,21.619z M40.67,25.679v8.295
			c0,0.84,0,1.575,0.035,2.135c0,0.49,0.035,0.806,0.141,0.945c0.14,0.141,0.524,0.141,1.015,0.176
			c0.56,0.035,1.295,0.035,1.995,0.035c5.109,0,6.966-1.541,6.966-5.217c0-6.09-6.336-6.371-6.616-6.371H40.67V25.679z"/>
		<path fill="#9BB637" d="M61.916,39.75c-1.189,0-2.136,0-2.871-0.105c-0.77-0.104-1.436-0.35-1.925-0.91
			c-0.49-0.489-0.7-1.084-0.805-1.854c-0.105-0.735-0.105-1.68-0.105-2.94V17.733c0-3.465,2.311-5.846,5.706-5.846h8.576v2.556
			h-8.576c-1.996,0-3.186,1.26-3.186,3.29v5.986h11.762v2.59H58.729v7.596c0,0.84,0,1.575,0.035,2.135
			c0.034,0.455,0.034,0.805,0.14,0.91c0.14,0.14,0.525,0.175,0.979,0.21c0.596,0.035,1.33,0.035,2.031,0.035h8.576v2.556
			L61.916,39.75L61.916,39.75z"/>
	</g>
</g>
</svg>
